<svg xmlns="http://www.w3.org/2000/svg" xmlns:svg="http://www.w3.org/2000/svg" id="svg5072" width="806.465" height="479.934" version="1.1" viewBox="0 0 213.377 126.983"><metadata id="metadata5069"/><g id="layer1" transform="translate(5.8699862,-15.045569)"><text style="font-style:normal;font-weight:400;font-size:10.58333302px;line-height:1.25;font-family:sans-serif;letter-spacing:0;word-spacing:0;fill:#000;fill-opacity:1;stroke:none;stroke-width:.26458332" id="text7094" x="39.688" y="19.188" xml:space="preserve"><tspan id="tspan7092" x="39.688" y="19.188" style="font-style:normal;font-variant:normal;font-weight:400;font-stretch:normal;font-size:4.23333311px;font-family:sans-serif;-inkscape-font-specification:'sans-serif, Normal';font-variant-ligatures:normal;font-variant-caps:normal;font-variant-numeric:normal;font-feature-settings:normal;text-align:center;writing-mode:lr-tb;text-anchor:middle;stroke-width:.26458332">Array Layer 0</tspan></text><text style="font-style:normal;font-weight:400;font-size:10.58333302px;line-height:1.25;font-family:sans-serif;letter-spacing:0;word-spacing:0;fill:#000;fill-opacity:1;stroke:none;stroke-width:.26458332" id="text7094-5" x="97.896" y="19.187" xml:space="preserve"><tspan id="tspan7092-3" x="97.896" y="19.187" style="font-style:normal;font-variant:normal;font-weight:400;font-stretch:normal;font-size:4.23333311px;font-family:sans-serif;-inkscape-font-specification:'sans-serif, Normal';font-variant-ligatures:normal;font-variant-caps:normal;font-variant-numeric:normal;font-feature-settings:normal;text-align:center;writing-mode:lr-tb;text-anchor:middle;stroke-width:.26458332">Array Layer 1</tspan></text><text style="font-style:normal;font-weight:400;font-size:10.58333302px;line-height:1.25;font-family:sans-serif;letter-spacing:0;word-spacing:0;fill:#000;fill-opacity:1;stroke:none;stroke-width:.26458332" id="text7094-6" x="156.104" y="19.187" xml:space="preserve"><tspan id="tspan7092-0" x="156.104" y="19.187" style="font-style:normal;font-variant:normal;font-weight:400;font-stretch:normal;font-size:4.23333311px;font-family:sans-serif;-inkscape-font-specification:'sans-serif, Normal';font-variant-ligatures:normal;font-variant-caps:normal;font-variant-numeric:normal;font-feature-settings:normal;text-align:center;writing-mode:lr-tb;text-anchor:middle;stroke-width:.26458332">Array Layer 2</tspan></text><text style="font-style:normal;font-variant:normal;font-weight:400;font-stretch:normal;font-size:4.23333311px;line-height:1.25;font-family:sans-serif;-inkscape-font-specification:'sans-serif, Normal';font-variant-ligatures:normal;font-variant-caps:normal;font-variant-numeric:normal;font-feature-settings:normal;text-align:center;letter-spacing:0;word-spacing:0;writing-mode:lr-tb;text-anchor:middle;fill:#000;fill-opacity:1;stroke:none;stroke-width:.26458332" id="text7094-67" x="2.646" y="48.292" xml:space="preserve"><tspan style="font-style:normal;font-variant:normal;font-weight:400;font-stretch:normal;font-size:4.23333311px;font-family:sans-serif;-inkscape-font-specification:'sans-serif, Normal';font-variant-ligatures:normal;font-variant-caps:normal;font-variant-numeric:normal;font-feature-settings:normal;text-align:center;writing-mode:lr-tb;text-anchor:middle;stroke-width:.26458332" id="tspan7152" x="2.646" y="48.292">Mip</tspan><tspan style="font-style:normal;font-variant:normal;font-weight:400;font-stretch:normal;font-size:4.23333311px;font-family:sans-serif;-inkscape-font-specification:'sans-serif, Normal';font-variant-ligatures:normal;font-variant-caps:normal;font-variant-numeric:normal;font-feature-settings:normal;text-align:center;writing-mode:lr-tb;text-anchor:middle;stroke-width:.26458332" id="tspan7156" x="2.646" y="53.583">Level 0</tspan></text><text style="font-style:normal;font-variant:normal;font-weight:400;font-stretch:normal;font-size:4.23333311px;line-height:1.25;font-family:sans-serif;-inkscape-font-specification:'sans-serif, Normal';font-variant-ligatures:normal;font-variant-caps:normal;font-variant-numeric:normal;font-feature-settings:normal;text-align:center;letter-spacing:0;word-spacing:0;writing-mode:lr-tb;text-anchor:middle;fill:#000;fill-opacity:1;stroke:none;stroke-width:.26458332" id="text7094-67-1" x="2.646" y="93.271" xml:space="preserve"><tspan style="font-style:normal;font-variant:normal;font-weight:400;font-stretch:normal;font-size:4.23333311px;font-family:sans-serif;-inkscape-font-specification:'sans-serif, Normal';font-variant-ligatures:normal;font-variant-caps:normal;font-variant-numeric:normal;font-feature-settings:normal;text-align:center;writing-mode:lr-tb;text-anchor:middle;stroke-width:.26458332" id="tspan7152-2" x="2.646" y="93.271">Mip</tspan><tspan style="font-style:normal;font-variant:normal;font-weight:400;font-stretch:normal;font-size:4.23333311px;font-family:sans-serif;-inkscape-font-specification:'sans-serif, Normal';font-variant-ligatures:normal;font-variant-caps:normal;font-variant-numeric:normal;font-feature-settings:normal;text-align:center;writing-mode:lr-tb;text-anchor:middle;stroke-width:.26458332" id="tspan7156-6" x="2.646" y="98.563">Level 1</tspan></text><text style="font-style:normal;font-variant:normal;font-weight:400;font-stretch:normal;font-size:4.23333311px;line-height:1.25;font-family:sans-serif;-inkscape-font-specification:'sans-serif, Normal';font-variant-ligatures:normal;font-variant-caps:normal;font-variant-numeric:normal;font-feature-settings:normal;text-align:center;letter-spacing:0;word-spacing:0;writing-mode:lr-tb;text-anchor:middle;fill:#000;fill-opacity:1;stroke:none;stroke-width:.26458332" id="text7094-67-2-1" x="2.646" y="127.667" xml:space="preserve"><tspan style="font-style:normal;font-variant:normal;font-weight:400;font-stretch:normal;font-size:4.23333311px;font-family:sans-serif;-inkscape-font-specification:'sans-serif, Normal';font-variant-ligatures:normal;font-variant-caps:normal;font-variant-numeric:normal;font-feature-settings:normal;text-align:center;writing-mode:lr-tb;text-anchor:middle;stroke-width:.26458332" id="tspan7156-0-4" x="2.646" y="127.667">Mip Tail</tspan></text><g id="g1301" transform="translate(1.3229068,-13.229199)"><rect id="rect6319-7-9-4" width="5.292" height="5.292" x="150.813" y="147.51" style="fill:red;fill-opacity:1;stroke:#000;stroke-width:.26458332;stroke-miterlimit:4;stroke-dasharray:none;stroke-dashoffset:0;stroke-opacity:1"/><rect id="rect5619-4-1-6-6-0-6-8" width="5.292" height="5.292" x="150.813" y="139.573" style="fill:#fff;fill-opacity:1;stroke:#000;stroke-width:.26499999;stroke-miterlimit:4;stroke-dasharray:1.05999995,1.05999995;stroke-dashoffset:0;stroke-opacity:1"/><rect id="rect5619-6-8-6-5-2" width="5.292" height="5.292" x="150.813" y="131.635" style="fill:gray;fill-opacity:1;stroke:#000;stroke-width:.26458332;stroke-miterlimit:4;stroke-dasharray:none;stroke-dashoffset:0;stroke-opacity:1"/><rect id="rect8983-1" width="55.563" height="29.104" x="149.49" y="125.021" style="fill:none;fill-opacity:1;stroke:#000;stroke-width:.265;stroke-miterlimit:4;stroke-dasharray:1.06,1.06;stroke-dashoffset:0;stroke-opacity:1"/><text style="font-style:normal;font-variant:normal;font-weight:400;font-stretch:normal;font-size:4.23333359px;line-height:1.25;font-family:sans-serif;-inkscape-font-specification:'sans-serif, Normal';font-variant-ligatures:normal;font-variant-caps:normal;font-variant-numeric:normal;font-feature-settings:normal;text-align:center;letter-spacing:0;word-spacing:0;writing-mode:lr-tb;text-anchor:middle;fill:#000;fill-opacity:1;stroke:none;stroke-width:.39687499" id="text823-4-2-9-4-7-9-85-3" x="177.271" y="128.99" xml:space="preserve"><tspan style="font-style:normal;font-variant:normal;font-weight:400;font-stretch:normal;font-size:4.23333359px;font-family:sans-serif;-inkscape-font-specification:'sans-serif, Normal';font-variant-ligatures:normal;font-variant-caps:normal;font-variant-numeric:normal;font-feature-settings:normal;text-align:center;writing-mode:lr-tb;text-anchor:middle;stroke-width:.39687499" id="tspan825-6-0-2-5-6-26-7-3" x="177.271" y="128.99">Legend</tspan></text><text style="font-style:normal;font-variant:normal;font-weight:400;font-stretch:normal;font-size:4.23333359px;line-height:1.25;font-family:sans-serif;-inkscape-font-specification:'sans-serif, Normal';font-variant-ligatures:normal;font-variant-caps:normal;font-variant-numeric:normal;font-feature-settings:normal;text-align:start;letter-spacing:0;word-spacing:0;writing-mode:lr-tb;text-anchor:start;fill:#000;fill-opacity:1;stroke:none;stroke-width:.39687499" id="text823-4-2-9-4-7-9-85-3-6" x="157.427" y="135.604" xml:space="preserve"><tspan style="font-style:normal;font-variant:normal;font-weight:400;font-stretch:normal;font-size:4.23333359px;font-family:sans-serif;-inkscape-font-specification:'sans-serif, Normal';font-variant-ligatures:normal;font-variant-caps:normal;font-variant-numeric:normal;font-feature-settings:normal;text-align:start;writing-mode:lr-tb;text-anchor:start;stroke-width:.39687499" id="tspan825-6-0-2-5-6-26-7-3-4" x="157.427" y="135.604">Image Pixel Data</tspan></text><text style="font-style:normal;font-variant:normal;font-weight:400;font-stretch:normal;font-size:4.23333359px;line-height:1.25;font-family:sans-serif;-inkscape-font-specification:'sans-serif, Normal';font-variant-ligatures:normal;font-variant-caps:normal;font-variant-numeric:normal;font-feature-settings:normal;text-align:start;letter-spacing:0;word-spacing:0;writing-mode:lr-tb;text-anchor:start;fill:#000;fill-opacity:1;stroke:none;stroke-width:.39687499" id="text823-4-2-9-4-7-9-85-3-6-5" x="157.427" y="143.542" xml:space="preserve"><tspan style="font-style:normal;font-variant:normal;font-weight:400;font-stretch:normal;font-size:4.23333359px;font-family:sans-serif;-inkscape-font-specification:'sans-serif, Normal';font-variant-ligatures:normal;font-variant-caps:normal;font-variant-numeric:normal;font-feature-settings:normal;text-align:start;writing-mode:lr-tb;text-anchor:start;stroke-width:.39687499" id="tspan825-6-0-2-5-6-26-7-3-4-2" x="157.427" y="143.542">Sparse Memory Block</tspan></text><text style="font-style:normal;font-variant:normal;font-weight:400;font-stretch:normal;font-size:4.23333359px;line-height:1.25;font-family:sans-serif;-inkscape-font-specification:'sans-serif, Normal';font-variant-ligatures:normal;font-variant-caps:normal;font-variant-numeric:normal;font-feature-settings:normal;text-align:start;letter-spacing:0;word-spacing:0;writing-mode:lr-tb;text-anchor:start;fill:#000;fill-opacity:1;stroke:none;stroke-width:.39687499" id="text823-4-2-9-4-7-9-85-3-6-6" x="157.427" y="151.479" xml:space="preserve"><tspan style="font-style:normal;font-variant:normal;font-weight:400;font-stretch:normal;font-size:4.23333359px;font-family:sans-serif;-inkscape-font-specification:'sans-serif, Normal';font-variant-ligatures:normal;font-variant-caps:normal;font-variant-numeric:normal;font-feature-settings:normal;text-align:start;writing-mode:lr-tb;text-anchor:start;stroke-width:.39687499" id="tspan825-6-0-2-5-6-26-7-3-4-1" x="157.427" y="151.479">Mip Tail Data</tspan></text></g><path style="fill:gray;fill-opacity:1;stroke:#000;stroke-width:.26458332px;stroke-linecap:butt;stroke-linejoin:miter;stroke-opacity:1" id="path1236" d="M 13.229167,21.833334 H 66.145833 V 74.75 H 13.229167 Z m 5.291667,0 V 74.75 M 29.104167,21.833334 V 74.75 m -5.291667,0 V 21.833334 m 10.583334,0 V 74.75 m 5.291666,0 V 21.833334 m 5.291666,0 V 74.75 m 5.291667,0 V 21.833334 m 5.291667,0 V 74.75 m 5.291666,0 V 21.833334 M 66.145833,27.125 H 13.229167 m 0,5.291667 h 52.916666 m 0,5.291667 H 13.229167 m 0,5.291666 h 52.916666 m 0,5.291667 H 13.229167 m 0,5.291667 h 52.916666 m 0,5.291666 H 13.229167 m 0,5.291667 h 52.916666 m 0,5.291667 H 13.229167"/><path style="fill:gray;fill-opacity:1;stroke:#000;stroke-width:.26458332px;stroke-linecap:butt;stroke-linejoin:miter;stroke-opacity:1" id="path1236-3" d="M 71.437501,21.833335 H 124.35416 V 74.75 H 71.437501 Z m 5.291667,0 V 74.75 M 87.312501,21.833335 V 74.75 m -5.291667,0 V 21.833335 m 10.583334,0 V 74.75 m 5.291666,0 V 21.833335 m 5.291666,0 V 74.75 m 5.29167,0 V 21.833335 m 5.29166,0 V 74.75 m 5.29167,0 V 21.833335 m 5.29166,5.291666 H 71.437501 m 0,5.291666 h 52.916659 m 0,5.291667 H 71.437501 m 0,5.291666 h 52.916659 m 0,5.291667 H 71.437501 m 0,5.291667 h 52.916659 m 0,5.291666 H 71.437501 m 0,5.291667 h 52.916659 m 0,5.291667 H 71.437501"/><path style="fill:gray;fill-opacity:1;stroke:#000;stroke-width:.26458332px;stroke-linecap:butt;stroke-linejoin:miter;stroke-opacity:1" id="path1236-1" d="M 129.64583,21.833334 H 182.5625 V 74.75 h -52.91667 z m 5.29167,0 V 74.75 M 145.52083,21.833334 V 74.75 m -5.29166,0 V 21.833334 m 10.58333,0 V 74.75 m 5.29167,0 V 21.833334 m 5.29166,0 V 74.75 m 5.29167,0 V 21.833334 m 5.29167,0 V 74.75 m 5.29166,0 V 21.833334 M 182.5625,27.125 h -52.91667 m 0,5.291667 h 52.91667 m 0,5.291667 h -52.91667 m 0,5.291666 h 52.91667 m 0,5.291667 h -52.91667 m 0,5.291667 h 52.91667 m 0,5.291666 h -52.91667 m 0,5.291667 h 52.91667 m 0,5.291667 h -52.91667"/><path id="path1299" d="M 13.229167,80.041667 H 39.687305 V 106.49981 H 13.229167 Z m 5.291628,0 v 26.458143 m 5.291627,-26.458143 v 26.458143 m 5.291627,-26.458143 v 26.458143 m 5.291628,-26.458143 v 26.458143 m -21.16651,-5.29163 h 26.458138 m 0,-5.291631 H 13.229167 m 0,-5.291627 h 26.458138 m 0,-5.291628 H 13.229167" style="fill:gray;stroke:#000;stroke-width:.25399813px;stroke-linecap:butt;stroke-linejoin:miter;stroke-miterlimit:4;stroke-dasharray:none;stroke-opacity:1;fill-opacity:1"/><path id="path1299-5" d="M 71.437501,80.041667 H 97.895639 V 106.49981 H 71.437501 Z m 5.291628,0 v 26.458143 m 5.291627,-26.458143 v 26.458143 m 5.291627,-26.458143 v 26.458143 m 5.291628,-26.458143 v 26.458143 m -21.16651,-5.29163 h 26.458138 m 0,-5.291631 H 71.437501 m 0,-5.291627 h 26.458138 m 0,-5.291628 H 71.437501" style="fill:gray;fill-opacity:1;stroke:#000;stroke-width:.25399813px;stroke-linecap:butt;stroke-linejoin:miter;stroke-miterlimit:4;stroke-dasharray:none;stroke-opacity:1"/><path id="path1299-7" d="m 129.64583,80.041667 h 26.45814 v 26.458143 h -26.45814 z m 5.29163,0 v 26.458143 m 5.29163,-26.458143 v 26.458143 m 5.29162,-26.458143 v 26.458143 m 5.29163,-26.458143 v 26.458143 m -21.16651,-5.29163 h 26.45814 m 0,-5.291631 h -26.45814 m 0,-5.291627 h 26.45814 m 0,-5.291628 h -26.45814" style="fill:gray;fill-opacity:1;stroke:#000;stroke-width:.25399813px;stroke-linecap:butt;stroke-linejoin:miter;stroke-miterlimit:4;stroke-dasharray:none;stroke-opacity:1"/><path id="path1299-6" d="m 13.229167,111.79167 15.875001,-3e-5 v 26.45815 l -15.875001,3e-5 z m 5.291629,0 v 26.45815 m 5.291627,-26.45815 v 26.45815 m -10.583256,-5.29163 15.875001,-3e-5 m 0,-5.29164 -15.875001,3e-5 m 0,-5.29162 15.875001,-3e-5 m 0,-5.29163 -15.875001,3e-5" style="fill:red;fill-opacity:1;stroke:#000;stroke-width:.25399813px;stroke-linecap:butt;stroke-linejoin:miter;stroke-miterlimit:4;stroke-dasharray:none;stroke-opacity:1"/><path id="path1299-6-4" d="m 71.437501,111.79167 15.875001,-3e-5 v 26.45815 l -15.875001,3e-5 z m 5.291628,0 v 26.45815 m 5.291628,-26.45815 v 26.45815 m -10.583256,-5.29163 15.875001,-3e-5 m 0,-5.29164 -15.875001,3e-5 m 0,-5.29162 15.875001,-3e-5 m 0,-5.29163 -15.875001,3e-5" style="fill:red;fill-opacity:1;stroke:#000;stroke-width:.25399813px;stroke-linecap:butt;stroke-linejoin:miter;stroke-miterlimit:4;stroke-dasharray:none;stroke-opacity:1"/><path id="path1299-6-8" d="m 129.64583,111.79167 15.875,-3e-5 v 26.45815 l -15.875,3e-5 z m 5.29163,0 v 26.45815 m 5.29162,-26.45815 v 26.45815 m -10.58325,-5.29163 15.875,-3e-5 m 0,-5.29164 -15.875,3e-5 m 0,-5.29162 15.875,-3e-5 m 0,-5.29163 -15.875,3e-5" style="fill:red;fill-opacity:1;stroke:#000;stroke-width:.25399813px;stroke-linecap:butt;stroke-linejoin:miter;stroke-miterlimit:4;stroke-dasharray:none;stroke-opacity:1"/></g></svg>